<?xml version="1.0" encoding="utf-8"?><!DOCTYPE svg PUBLIC "-//W3C//DTD SVG 1.1//EN"
    "http://www.w3.org/Graphics/SVG/1.1/DTD/svg11.dtd"><!--suppress XmlHighlighting -->
<svg height="512px" preserveAspectRatio="xMidYMid meet" version="1.1" viewBox="0 0 5120 5120"
    width="512px" x="0px" xmlns="http://www.w3.org/2000/svg" y="0px">
    <g id="layer101">
        <path
            d="M135 5101 c-49 -23 -99 -74 -119 -123 -14 -33 -16 -290 -16 -2418 0 -2128 2 -2385 16 -2418 20 -49 70 -100 119 -123 38 -18 100 -19 1553 -19 1247 0 1518 2 1545 13 47 20 95 64 120 111 22 40 22 50 27 534 l5 493 99 40 c376 151 638 466 722 869 25 116 25 344 0 460 -56 267 -186 492 -384 663 -113 98 -216 159 -367 217 l-70 27 -5 764 c-5 758 -5 764 -27 804 -25 48 -54 76 -108 104 l-40 21 -1515 0 c-1455 0 -1517 -1 -1555 -19z"
            fill="#3a556a" />
        <path
            d="M4121 5100 c-98 -24 -241 -96 -322 -164 -284 -234 -369 -644 -204 -978 45 -91 88 -149 167 -223 78 -75 108 -96 197 -140 333 -165 742 -80 978 204 66 80 146 240 167 338 20 89 21 265 2 354 -65 305 -327 562 -630 618 -91 17 -269 12 -355 -9z"
            fill="#3a556a" />
        <path
            d="M4245 1360 c-334 -38 -584 -334 -562 -665 23 -342 292 -596 633 -597 115 -1 176 13 284 64 69 33 100 56 165 122 127 128 185 267 185 446 0 179 -58 318 -185 446 -60 60 -99 90 -155 117 -119 58 -241 80 -365 67z"
            fill="#3a556a" />
    </g>
    <g id="layer102">
        <path
            d="M135 5101 c-49 -23 -99 -74 -119 -123 -14 -33 -16 -290 -16 -2418 0 -2128 2 -2385 16 -2418 20 -49 70 -100 119 -123 38 -18 100 -19 1555 -19 l1515 0 40 21 c54 28 83 56 108 104 21 39 22 52 27 533 l5 493 99 40 c376 151 638 466 722 869 25 116 25 344 0 460 -34 161 -89 295 -172 420 -213 321 -539 507 -926 527 l-108 6 0 82 c0 58 4 86 14 94 17 14 196 -1 291 -24 33 -8 63 -14 68 -15 4 0 6 303 5 673 l-3 674 -30 49 c-17 27 -51 62 -75 79 l-45 30 -1525 2 c-1469 3 -1526 2 -1565 -16z m1660 -130 c162 -71 201 -299 71 -419 -59 -55 -120 -76 -199 -70 -75 6 -114 25 -167 79 -50 52 -74 123 -67 199 16 180 194 284 362 211z m-750 -4656 c31 -30 32 -62 3 -92 -27 -29 -71 -30 -98 -1 -28 31 -26 72 6 97 35 27 59 26 89 -4z m1058 14 c30 -16 37 -28 37 -66 0 -63 2 -63 -456 -63 l-413 0 -20 26 c-27 35 -26 59 4 89 l24 25 401 0 c283 0 408 -3 423 -11z"
            fill="#64798a" />
        <path
            d="M1614 4886 c-58 -26 -101 -107 -91 -172 15 -88 97 -151 184 -141 117 13 181 142 122 247 -40 70 -137 100 -215 66z"
            fill="#64798a" />
        <path
            d="M4121 5100 c-98 -24 -241 -96 -322 -164 -284 -234 -369 -644 -204 -978 45 -91 88 -149 167 -223 78 -75 108 -96 197 -140 333 -165 742 -80 978 204 66 80 146 240 167 338 20 89 21 265 2 354 -65 305 -327 562 -630 618 -91 17 -269 12 -355 -9z"
            fill="#64798a" />
        <path
            d="M4245 1360 c-334 -38 -584 -334 -562 -665 23 -342 292 -596 633 -597 115 -1 176 13 284 64 69 33 100 56 165 122 127 128 185 267 185 446 0 179 -58 318 -185 446 -60 60 -99 90 -155 117 -119 58 -241 80 -365 67z"
            fill="#64798a" />
    </g>
    <g id="layer103">
        <path
            d="M4121 5100 c-98 -24 -241 -96 -322 -164 -284 -234 -369 -644 -204 -978 45 -91 88 -149 167 -223 78 -75 108 -96 197 -140 333 -165 742 -80 978 204 66 80 146 240 167 338 20 89 21 265 2 354 -65 305 -327 562 -630 618 -91 17 -269 12 -355 -9z"
            fill="#dc8744" />
        <path
            d="M370 2440 l0 -1940 1315 0 1315 0 0 303 0 304 108 6 c59 4 139 14 177 22 39 8 83 18 99 21 45 8 195 72 261 112 241 144 431 376 518 632 46 135 61 233 61 390 0 159 -15 256 -63 395 -99 285 -313 528 -581 660 -79 40 -196 85 -202 79 -3 -2 -20 1 -39 7 -52 16 -217 39 -283 39 l-59 0 5 455 6 455 -1319 0 -1319 0 0 -1940z"
            fill="#dc8744" />
        <path
            d="M4245 1360 c-334 -38 -584 -334 -562 -665 23 -342 292 -596 633 -597 115 -1 176 13 284 64 69 33 100 56 165 122 127 128 185 267 185 446 0 179 -58 318 -185 446 -60 60 -99 90 -155 117 -119 58 -241 80 -365 67z"
            fill="#dc8744" />
    </g>
    <g id="layer104">
        <path
            d="M4162 4950 c-96 -25 -152 -51 -227 -105 -89 -63 -149 -136 -200 -240 -51 -106 -68 -179 -68 -295 1 -178 61 -318 193 -450 132 -132 272 -192 450 -193 116 0 189 17 295 68 215 104 349 308 362 550 17 315 -205 606 -512 670 -95 20 -205 18 -293 -5z m198 -210 c0 -35 3 -40 28 -45 109 -23 173 -63 203 -128 21 -47 25 -130 8 -174 -22 -60 -79 -103 -179 -134 l-55 -17 -3 -101 c-3 -101 -3 -101 21 -101 13 0 51 13 83 30 32 16 59 28 59 27 1 -1 17 -23 35 -50 33 -46 33 -48 14 -62 -26 -20 -120 -55 -169 -64 -34 -5 -40 -10 -43 -34 -3 -23 -8 -27 -37 -27 -29 0 -34 4 -37 27 -3 24 -9 29 -45 35 -116 19 -187 102 -188 218 0 105 50 163 172 199 l58 17 3 107 c2 87 0 107 -11 107 -23 0 -88 -30 -134 -61 l-42 -29 -40 48 -41 47 27 20 c52 39 129 75 186 87 57 12 57 12 57 48 0 44 5 50 42 50 26 0 28 -3 28 -40z"
            fill="#fcd462" />
        <path
            d="M4366 4572 c-9 -8 -7 -192 1 -192 4 0 26 9 49 20 70 34 82 109 25 149 -29 20 -67 32 -75 23z"
            fill="#fcd462" />
        <path
            d="M4245 4205 c-41 -21 -55 -43 -55 -82 0 -39 35 -78 75 -85 l25 -5 0 93 c0 52 -3 94 -7 94 -5 0 -21 -7 -38 -15z"
            fill="#fcd462" />
        <path
            d="M370 2440 l0 -1940 1315 0 1315 0 0 305 0 305 -22 4 c-13 3 -52 8 -88 11 -380 36 -759 317 -918 681 -82 188 -106 317 -99 529 6 173 27 270 87 412 45 105 84 171 149 258 190 250 501 427 794 451 42 4 80 10 85 13 5 3 11 193 15 459 l5 452 -1319 0 -1319 0 0 -1940z"
            fill="#fcd462" />
        <path
            d="M2915 3243 c-88 -12 -202 -50 -300 -98 -566 -281 -706 -1020 -283 -1500 108 -123 304 -240 478 -287 71 -19 110 -23 235 -22 181 0 267 19 420 94 238 116 409 313 489 563 157 490 -87 1005 -566 1193 -131 51 -335 76 -473 57z m195 -338 c0 -60 -5 -56 85 -70 101 -16 210 -93 255 -182 21 -40 25 -62 25 -138 0 -81 -3 -95 -29 -143 -44 -78 -121 -129 -264 -172 l-72 -22 0 -149 c0 -138 1 -149 18 -149 29 0 130 37 177 65 l42 24 52 -74 52 -74 -39 -25 c-71 -45 -166 -79 -254 -91 l-48 -7 0 -44 0 -44 -50 0 -50 0 0 45 c0 43 -1 45 -29 45 -48 0 -154 37 -199 71 -82 60 -125 147 -124 253 0 135 45 203 175 265 45 21 103 44 130 51 l47 13 0 158 0 159 -27 -6 c-77 -19 -145 -53 -217 -108 l-39 -30 -29 34 c-16 19 -43 52 -59 72 l-30 37 53 40 c69 52 166 97 253 117 39 9 76 18 83 20 8 2 12 23 12 59 l0 55 50 0 50 0 0 -55z"
            fill="#fcd462" />
        <path
            d="M3110 2526 c0 -80 3 -146 6 -146 3 0 35 14 70 31 70 33 94 64 94 121 0 67 -51 118 -133 133 l-37 7 0 -146z"
            fill="#fcd462" />
        <path
            d="M2962 2135 c-90 -39 -125 -99 -102 -171 13 -39 65 -78 118 -88 l32 -5 0 139 c0 77 -3 140 -7 140 -5 -1 -23 -7 -41 -15z"
            fill="#fcd462" />
        <path
            d="M4180 1224 c-133 -36 -266 -150 -327 -281 -107 -232 -27 -504 191 -645 82 -53 169 -78 270 -78 144 0 263 49 363 148 280 280 158 742 -226 856 -68 20 -197 20 -271 0z m170 -163 c0 -26 5 -30 48 -41 96 -24 151 -85 152 -168 0 -78 -42 -127 -141 -163 l-59 -22 0 -79 0 -80 33 7 c17 4 46 16 64 26 l32 20 25 -38 c14 -21 26 -41 26 -44 0 -11 -91 -50 -134 -58 -32 -5 -42 -11 -44 -29 -4 -30 -52 -32 -52 -2 0 13 -9 22 -27 26 -101 21 -154 74 -161 158 -7 88 41 146 146 177 l42 12 0 84 c0 60 -3 83 -12 83 -20 -1 -100 -39 -121 -58 -18 -16 -20 -15 -48 18 -15 19 -27 40 -25 45 5 19 91 64 146 78 51 13 55 17 58 46 3 25 8 31 28 31 20 0 24 -5 24 -29z"
            fill="#fcd462" />
        <path
            d="M4350 854 c0 -65 2 -75 16 -70 9 3 19 6 23 6 19 0 51 43 51 70 0 31 -39 70 -71 70 -17 0 -19 -9 -19 -76z"
            fill="#fcd462" />
        <path
            d="M4255 638 c-28 -16 -35 -28 -35 -65 0 -34 29 -63 62 -63 16 0 18 10 18 70 0 74 -5 81 -45 58z"
            fill="#fcd462" />
    </g>
    <g id="layer105">
        <path
            d="M370 2440 l0 -1940 1315 0 1315 0 0 304 0 303 -62 7 c-411 46 -744 268 -937 627 -149 276 -176 633 -70 938 100 289 313 529 593 666 128 63 241 98 379 116 l97 12 0 287 c0 158 3 362 7 453 l6 167 -1321 0 -1322 0 0 -1940z"
            fill="#e8edf0" />
    </g>


</svg>